<svg width="27" height="26" viewBox="0 0 27 26" fill="none" xmlns="http://www.w3.org/2000/svg">
<path d="M13.7415 2.16455C7.77237 2.16455 2.9082 7.02872 2.9082 12.9979C2.9082 18.967 7.77237 23.8312 13.7415 23.8312C19.7107 23.8312 24.5749 18.967 24.5749 12.9979C24.5749 7.02872 19.7107 2.16455 13.7415 2.16455ZM18.454 16.8654C18.3024 17.1254 18.0315 17.2662 17.7499 17.2662C17.609 17.2662 17.4682 17.2337 17.3382 17.147L13.9799 15.1429C13.1457 14.6445 12.5282 13.5504 12.5282 12.5862V8.14455C12.5282 7.70038 12.8965 7.33205 13.3407 7.33205C13.7849 7.33205 14.1532 7.70038 14.1532 8.14455V12.5862C14.1532 12.9762 14.4782 13.5504 14.814 13.7454L18.1724 15.7495C18.5624 15.977 18.6924 16.4754 18.454 16.8654Z" fill="#383542"/>
</svg>
